<?xml version="1.0" encoding="UTF-8"?>
<!DOCTYPE svg PUBLIC "-//W3C//DTD SVG 1.1//EN" "http://www.w3.org/Graphics/SVG/1.1/DTD/svg11.dtd">
<svg xmlns="http://www.w3.org/2000/svg" version="1.1" width="512px" height="512px" style="shape-rendering:geometricPrecision; text-rendering:geometricPrecision; image-rendering:optimizeQuality; fill-rule:evenodd; clip-rule:evenodd" xmlns:xlink="http://www.w3.org/1999/xlink">
<g><path style="opacity:0.93" fill="#000000" d="M 252.5,31.5 C 258.167,31.5 263.833,31.5 269.5,31.5C 269.482,39.3943 266.649,46.061 261,51.5C 259.596,53.6389 258.763,55.9722 258.5,58.5C 262.23,64.956 265.73,71.6227 269,78.5C 269.667,82.5 269.667,86.5 269,90.5C 266.082,97.882 262.582,104.882 258.5,111.5C 252.833,111.5 247.167,111.5 241.5,111.5C 241.518,103.606 244.351,96.939 250,91.5C 252.753,87.6665 253.086,83.6665 251,79.5C 243.215,72.1452 240.215,63.1452 242,52.5C 244.918,45.118 248.418,38.118 252.5,31.5 Z"/></g>
<g><path style="opacity:0.93" fill="#000000" d="M 204.5,47.5 C 210.167,47.5 215.833,47.5 221.5,47.5C 221.482,55.3943 218.649,62.061 213,67.5C 211.596,69.6389 210.763,71.9722 210.5,74.5C 214.23,80.956 217.73,87.6227 221,94.5C 221.667,98.5 221.667,102.5 221,106.5C 218.082,113.882 214.582,120.882 210.5,127.5C 204.833,127.5 199.167,127.5 193.5,127.5C 193.518,119.606 196.351,112.939 202,107.5C 204.753,103.667 205.086,99.6665 203,95.5C 195.215,88.1452 192.215,79.1452 194,68.5C 196.918,61.118 200.418,54.118 204.5,47.5 Z"/></g>
<g><path style="opacity:0.966" fill="#020000" d="M 263.5,215.5 C 262.207,213.704 260.707,212.037 259,210.5C 258.333,209.833 258.333,209.167 259,208.5C 264.5,203 270,197.5 275.5,192C 264.403,191.956 253.403,191.289 242.5,190C 241.107,188.829 240.273,187.329 240,185.5C 239.667,178.167 239.333,170.833 239,163.5C 230.167,172.333 221.333,181.167 212.5,190C 209.134,191.879 205.8,191.879 202.5,190C 193.667,181.167 184.833,172.333 176,163.5C 175.907,171.909 175.24,180.243 174,188.5C 172.829,189.893 171.329,190.727 169.5,191C 162.167,191.333 154.833,191.667 147.5,192C 150.683,195.015 153.683,198.182 156.5,201.5C 154.395,203.592 152.728,205.925 151.5,208.5C 149.704,209.793 148.037,211.293 146.5,213C 145.833,213.667 145.167,213.667 144.5,213C 136.667,205.167 128.833,197.333 121,189.5C 119.517,186.298 119.183,182.964 120,179.5C 120.5,177.667 121.667,176.5 123.5,176C 135.495,175.5 147.495,175.333 159.5,175.5C 159.333,163.495 159.5,151.495 160,139.5C 161.529,136.484 164.029,135.151 167.5,135.5C 169.634,135.515 171.634,136.015 173.5,137C 184.681,148.348 196.014,159.514 207.5,170.5C 218.986,159.514 230.319,148.348 241.5,137C 244.702,135.517 248.036,135.183 251.5,136C 253.333,136.5 254.5,137.667 255,139.5C 255.5,151.495 255.667,163.495 255.5,175.5C 270.17,175.333 284.837,175.5 299.5,176C 301.333,176.5 302.5,177.667 303,179.5C 303.817,182.964 303.483,186.298 302,189.5C 291.5,200 281,210.5 270.5,221C 267.536,220.228 265.202,218.395 263.5,215.5 Z"/></g>
<g><path style="opacity:0.999" fill="#fe9710" d="M 263.5,215.5 C 228.498,215.667 193.498,215.5 158.5,215C 156.297,212.628 153.963,210.461 151.5,208.5C 152.728,205.925 154.395,203.592 156.5,201.5C 153.683,198.182 150.683,195.015 147.5,192C 154.833,191.667 162.167,191.333 169.5,191C 171.329,190.727 172.829,189.893 174,188.5C 175.24,180.243 175.907,171.909 176,163.5C 184.833,172.333 193.667,181.167 202.5,190C 205.8,191.879 209.134,191.879 212.5,190C 221.333,181.167 230.167,172.333 239,163.5C 239.333,170.833 239.667,178.167 240,185.5C 240.273,187.329 241.107,188.829 242.5,190C 253.403,191.289 264.403,191.956 275.5,192C 270,197.5 264.5,203 259,208.5C 258.333,209.167 258.333,209.833 259,210.5C 260.707,212.037 262.207,213.704 263.5,215.5 Z"/></g>
<g><path style="opacity:0.98" fill="#020101" d="M 495.5,197.5 C 494.539,199.265 494.205,201.265 494.5,203.5C 437.483,208.057 380.483,212.89 323.5,218C 314.554,219.555 308.054,224.388 304,232.5C 292.752,259.164 281.918,285.997 271.5,313C 271.645,313.772 271.978,314.439 272.5,315C 282.57,319.784 292.403,324.951 302,330.5C 303.879,333.8 303.879,337.134 302,340.5C 298.318,344.015 294.818,347.682 291.5,351.5C 294.818,355.318 298.318,358.985 302,362.5C 304.101,366.665 303.601,370.498 300.5,374C 291.036,379.301 281.703,384.801 272.5,390.5C 271.516,393.428 271.183,396.428 271.5,399.5C 279.822,398.713 288.156,398.046 296.5,397.5C 296.569,402.854 296.902,408.187 297.5,413.5C 289.811,413.613 282.145,414.113 274.5,415C 272.446,420.901 273.78,425.901 278.5,430C 286.398,430.861 294.065,430.361 301.5,428.5C 303.5,428.5 305.5,428.5 307.5,428.5C 310.897,398.936 327.231,381.436 356.5,376C 387.722,374.745 408.055,388.911 417.5,418.5C 420.385,418.806 423.052,418.473 425.5,417.5C 438.876,416.973 452.209,415.973 465.5,414.5C 463.492,377.736 460.492,341.069 456.5,304.5C 451.533,303.338 446.533,303.171 441.5,304C 399.531,308.058 357.531,311.391 315.5,314C 307.376,309.581 304.21,302.747 306,293.5C 308.345,278.431 311.011,263.431 314,248.5C 318.46,239.057 325.96,233.89 336.5,233C 389.497,228.241 442.497,223.741 495.5,219.5C 496.211,225.01 496.211,230.343 495.5,235.5C 486.154,236.002 476.821,236.668 467.5,237.5C 468.405,253.51 469.405,269.51 470.5,285.5C 477.143,284.788 483.809,284.454 490.5,284.5C 491.833,284.5 493.167,284.5 494.5,284.5C 494.263,285.791 494.596,286.791 495.5,287.5C 496.571,291.989 496.571,296.322 495.5,300.5C 494.378,299.844 493.045,299.511 491.5,299.5C 485.146,300.113 478.813,300.779 472.5,301.5C 475.831,337.131 478.831,372.798 481.5,408.5C 481.5,410.167 481.5,411.833 481.5,413.5C 483.415,413.784 485.081,413.451 486.5,412.5C 489.167,412.5 491.833,412.5 494.5,412.5C 494.232,414.099 494.566,415.432 495.5,416.5C 496.272,420.452 496.605,424.452 496.5,428.5C 470.811,430.669 445.144,433.002 419.5,435.5C 417.403,457.216 406.737,473.05 387.5,483C 357.837,493.999 333.671,486.832 315,461.5C 312.283,456.733 310.116,451.733 308.5,446.5C 306.667,446.167 304.833,445.833 303,445.5C 295.159,446.362 287.325,446.862 279.5,447C 267.457,445.29 260.29,438.457 258,426.5C 256.966,413.461 255.633,400.461 254,387.5C 252.039,403.228 249.706,418.895 247,434.5C 243.005,445.83 235.005,451.497 223,451.5C 214.157,450.378 205.324,449.545 196.5,449C 183.02,480.576 159.353,492.909 125.5,486C 107,479.5 94.5,467 88,448.5C 86.7468,443.227 85.9135,437.894 85.5,432.5C 61.3588,429.575 37.3588,425.909 13.5,421.5C 14.5385,417.231 15.2051,412.898 15.5,408.5C 16.1556,407.722 16.9889,407.056 18,406.5C 20.0989,407.287 22.2655,407.62 24.5,407.5C 29.1704,371.965 34.1704,336.465 39.5,301C 39.4555,299.236 39.1222,297.569 38.5,296C 30.863,294.837 23.1963,294.003 15.5,293.5C 14.6236,293.631 13.9569,293.298 13.5,292.5C 14.4451,288.552 15.1118,284.552 15.5,280.5C 16.404,279.791 16.7373,278.791 16.5,277.5C 25.2147,278.141 33.8814,279.141 42.5,280.5C 44.5947,264.505 46.5947,248.505 48.5,232.5C 37.4332,231.711 26.4332,230.378 15.5,228.5C 14.7611,228.631 14.0944,228.464 13.5,228C 14.5311,223.591 15.1978,219.091 15.5,214.5C 16.1556,213.722 16.9889,213.056 18,212.5C 50.4978,217.834 82.9978,222.168 115.5,225.5C 111.944,217.11 105.944,211.276 97.5,208C 70.2739,203.347 42.9406,199.514 15.5,196.5C 14.6236,196.631 13.9569,196.298 13.5,195.5C 14.5639,190.555 15.3973,185.555 16,180.5C 43.1256,183.204 70.2922,186.704 97.5,191C 111.083,193.922 121.249,201.422 128,213.5C 144.416,240.667 161.083,267.667 178,294.5C 196.5,282 215,269.5 233.5,257C 237.5,255 241.5,255 245.5,257C 251.212,262.377 256.545,268.043 261.5,274C 258.549,277.954 255.216,281.621 251.5,285C 250.5,285.667 249.5,285.667 248.5,285C 245,281.5 241.5,278 238,274.5C 224.587,283.79 211.087,292.957 197.5,302C 221.497,302.403 239.331,312.903 251,333.5C 252.554,321.614 255.221,309.947 259,298.5C 269.195,274.247 279.195,249.914 289,225.5C 295.607,211.902 306.441,204.069 321.5,202C 377.491,197.056 433.491,192.223 489.5,187.5C 492.167,187.833 494.833,188.167 497.5,188.5C 496.831,191.53 496.165,194.53 495.5,197.5 Z"/></g>
<g><path style="opacity:1" fill="#3b96dc" d="M 15.5,196.5 C 42.9406,199.514 70.2739,203.347 97.5,208C 105.944,211.276 111.944,217.11 115.5,225.5C 82.9978,222.168 50.4978,217.834 18,212.5C 16.9889,213.056 16.1556,213.722 15.5,214.5C 15.5,208.5 15.5,202.5 15.5,196.5 Z"/></g>
<g><path style="opacity:1" fill="#fb6042" d="M 495.5,197.5 C 495.5,204.833 495.5,212.167 495.5,219.5C 442.497,223.741 389.497,228.241 336.5,233C 325.96,233.89 318.46,239.057 314,248.5C 311.011,263.431 308.345,278.431 306,293.5C 304.21,302.747 307.376,309.581 315.5,314C 357.531,311.391 399.531,308.058 441.5,304C 446.533,303.171 451.533,303.338 456.5,304.5C 460.492,341.069 463.492,377.736 465.5,414.5C 452.209,415.973 438.876,416.973 425.5,417.5C 414.632,382.818 390.966,366.318 354.5,368C 323.466,374.533 305.133,393.367 299.5,424.5C 299.585,426.333 300.252,427.666 301.5,428.5C 294.065,430.361 286.398,430.861 278.5,430C 273.78,425.901 272.446,420.901 274.5,415C 282.145,414.113 289.811,413.613 297.5,413.5C 296.902,408.187 296.569,402.854 296.5,397.5C 288.156,398.046 279.822,398.713 271.5,399.5C 271.183,396.428 271.516,393.428 272.5,390.5C 281.703,384.801 291.036,379.301 300.5,374C 303.601,370.498 304.101,366.665 302,362.5C 298.318,358.985 294.818,355.318 291.5,351.5C 294.818,347.682 298.318,344.015 302,340.5C 303.879,337.134 303.879,333.8 302,330.5C 292.403,324.951 282.57,319.784 272.5,315C 271.978,314.439 271.645,313.772 271.5,313C 281.918,285.997 292.752,259.164 304,232.5C 308.054,224.388 314.554,219.555 323.5,218C 380.483,212.89 437.483,208.057 494.5,203.5C 494.205,201.265 494.539,199.265 495.5,197.5 Z"/></g>
<g><path style="opacity:1" fill="#ced0d1" d="M 15.5,228.5 C 26.4332,230.378 37.4332,231.711 48.5,232.5C 46.5947,248.505 44.5947,264.505 42.5,280.5C 33.8814,279.141 25.2147,278.141 16.5,277.5C 16.7373,278.791 16.404,279.791 15.5,280.5C 15.5,263.167 15.5,245.833 15.5,228.5 Z"/></g>
<g><path style="opacity:1" fill="#e3e4e5" d="M 64.5,235.5 C 85.5304,238.219 106.53,241.219 127.5,244.5C 138.041,261.751 148.708,278.917 159.5,296C 156.167,296.667 152.833,296.667 149.5,296C 119.27,291.025 88.9366,286.858 58.5,283.5C 60.3709,267.48 62.3709,251.48 64.5,235.5 Z"/></g>
<g><path style="opacity:1" fill="#e3e4e5" d="M 495.5,235.5 C 495.5,251.5 495.5,267.5 495.5,283.5C 493.585,283.216 491.919,283.549 490.5,284.5C 483.809,284.454 477.143,284.788 470.5,285.5C 469.405,269.51 468.405,253.51 467.5,237.5C 476.821,236.668 486.154,236.002 495.5,235.5 Z"/></g>
<g><path style="opacity:1" fill="#cfd1d2" d="M 439.5,239.5 C 443.5,239.5 447.5,239.5 451.5,239.5C 452.784,255.479 453.784,271.479 454.5,287.5C 410.203,291.533 365.87,295.199 321.5,298.5C 323.448,284.81 325.615,271.143 328,257.5C 328.833,252.667 331.667,249.833 336.5,249C 371.014,246.15 405.348,242.984 439.5,239.5 Z"/></g>
<g><path style="opacity:1" fill="#646464" d="M 490.5,284.5 C 491.919,283.549 493.585,283.216 495.5,283.5C 495.5,284.833 495.5,286.167 495.5,287.5C 494.596,286.791 494.263,285.791 494.5,284.5C 493.167,284.5 491.833,284.5 490.5,284.5 Z"/></g>
<g><path style="opacity:1" fill="#3c98df" d="M 15.5,293.5 C 23.1963,294.003 30.863,294.837 38.5,296C 39.1222,297.569 39.4555,299.236 39.5,301C 34.1704,336.465 29.1704,371.965 24.5,407.5C 22.2655,407.62 20.0989,407.287 18,406.5C 16.9889,407.056 16.1556,407.722 15.5,408.5C 15.5,370.167 15.5,331.833 15.5,293.5 Z"/></g>
<g><path style="opacity:1" fill="#59a8e5" d="M 208.5,433.5 C 206.382,413.098 197.716,395.932 182.5,382C 166.807,370.057 149.14,365.724 129.5,369C 105.075,374.925 88.7415,389.759 80.5,413.5C 79.3112,414.429 77.9778,414.762 76.5,414.5C 65.1199,413.422 53.7866,411.922 42.5,410C 41.3418,408.991 40.6752,407.658 40.5,406C 45.5482,370.163 50.5482,334.33 55.5,298.5C 108.889,306.009 162.222,313.843 215.5,322C 223.906,325.19 230.239,330.69 234.5,338.5C 233.667,338.833 232.833,339.167 232,339.5C 224.621,338.799 217.287,337.799 210,336.5C 202.288,337.353 196.955,341.353 194,348.5C 192.56,356.126 191.893,363.793 192,371.5C 193.017,376.712 195.851,380.545 200.5,383C 212.363,385.719 224.363,387.552 236.5,388.5C 236.02,393.822 235.687,399.155 235.5,404.5C 227.131,403.781 218.798,402.781 210.5,401.5C 210.313,406.845 209.98,412.178 209.5,417.5C 217.18,418.407 224.847,419.407 232.5,420.5C 233.784,428.526 230.618,433.526 223,435.5C 218.16,434.796 213.326,434.129 208.5,433.5 Z"/></g>
<g><path style="opacity:1" fill="#fc4f22" d="M 495.5,300.5 C 495.5,339.167 495.5,377.833 495.5,416.5C 494.566,415.432 494.232,414.099 494.5,412.5C 491.833,412.5 489.167,412.5 486.5,412.5C 485.167,412.5 483.833,412.5 482.5,412.5C 482.768,410.901 482.434,409.568 481.5,408.5C 478.831,372.798 475.831,337.131 472.5,301.5C 478.813,300.779 485.146,300.113 491.5,299.5C 493.045,299.511 494.378,299.844 495.5,300.5 Z"/></g>
<g><path style="opacity:1" fill="#040609" d="M 68.5,317.5 C 79.3272,317.618 89.9939,318.952 100.5,321.5C 99.8363,326.473 99.5029,331.473 99.5,336.5C 88.7736,335.634 78.1069,334.301 67.5,332.5C 67.7509,327.493 68.0843,322.493 68.5,317.5 Z"/></g>
<g><path style="opacity:1" fill="#0a0301" d="M 357.5,327.5 C 359.167,327.5 360.833,327.5 362.5,327.5C 362.98,332.822 363.313,338.155 363.5,343.5C 352.837,344.211 342.17,344.878 331.5,345.5C 331.02,340.178 330.687,334.845 330.5,329.5C 339.683,329.282 348.683,328.615 357.5,327.5 Z"/></g>
<g><path style="opacity:1" fill="#f39110" d="M 268.5,331.5 C 273.09,333.128 277.423,335.295 281.5,338C 276.963,341.521 273.63,345.854 271.5,351C 271.796,352.888 272.296,354.722 273,356.5C 276.167,359.667 279.333,362.833 282.5,366C 278.332,368.25 274.332,370.75 270.5,373.5C 267.978,359.512 267.311,345.512 268.5,331.5 Z"/></g>
<g><path style="opacity:1" fill="#dedfe0" d="M 209.5,352.5 C 219.781,354.162 230.114,355.495 240.5,356.5C 240.528,361.862 240.194,367.195 239.5,372.5C 229.062,371.913 218.728,370.58 208.5,368.5C 208.167,368 207.833,367.5 207.5,367C 208.349,362.191 209.016,357.357 209.5,352.5 Z"/></g>
<g><path style="opacity:1" fill="#3c96dc" d="M 208.5,433.5 C 204.9,433.206 201.4,432.54 198,431.5C 196.12,402.24 180.954,384.074 152.5,377C 121.443,373.694 100.11,386.527 88.5,415.5C 88,415.833 87.5,416.167 87,416.5C 83.3458,415.938 79.8458,415.271 76.5,414.5C 77.9778,414.762 79.3112,414.429 80.5,413.5C 88.7415,389.759 105.075,374.925 129.5,369C 149.14,365.724 166.807,370.057 182.5,382C 197.716,395.932 206.382,413.098 208.5,433.5 Z"/></g>
<g><path style="opacity:1" fill="#fb4f23" d="M 425.5,417.5 C 423.052,418.473 420.385,418.806 417.5,418.5C 408.055,388.911 387.722,374.745 356.5,376C 327.231,381.436 310.897,398.936 307.5,428.5C 305.5,428.5 303.5,428.5 301.5,428.5C 300.252,427.666 299.585,426.333 299.5,424.5C 305.133,393.367 323.466,374.533 354.5,368C 390.966,366.318 414.632,382.818 425.5,417.5 Z"/></g>
<g><path style="opacity:1" fill="#76747e" d="M 132.5,392.5 C 158.261,389.78 174.761,400.78 182,425.5C 183.356,448.465 173.189,463.631 151.5,471C 126.903,474.123 110.736,463.956 103,440.5C 100.387,416.707 110.221,400.707 132.5,392.5 Z"/></g>
<g><path style="opacity:1" fill="#76747e" d="M 356.5,391.5 C 380.78,390.372 396.28,401.372 403,424.5C 404.764,448.389 394.264,463.889 371.5,471C 346.546,473.443 330.713,462.61 324,438.5C 322.457,414.218 333.291,398.552 356.5,391.5 Z"/></g>
<g><path style="opacity:1" fill="#7f2811" d="M 481.5,408.5 C 482.434,409.568 482.768,410.901 482.5,412.5C 483.833,412.5 485.167,412.5 486.5,412.5C 485.081,413.451 483.415,413.784 481.5,413.5C 481.5,411.833 481.5,410.167 481.5,408.5 Z"/></g>
<g><path style="opacity:1" fill="#050506" d="M 134.5,423.5 C 139.833,423.833 145.167,424.167 150.5,424.5C 149.902,429.813 149.569,435.146 149.5,440.5C 144.167,440.167 138.833,439.833 133.5,439.5C 133.569,434.146 133.902,428.813 134.5,423.5 Z"/></g>
<g><path style="opacity:1" fill="#040404" d="M 362.5,423.5 C 365.167,423.5 367.833,423.5 370.5,423.5C 371.275,428.797 371.608,434.13 371.5,439.5C 366.138,439.472 360.805,439.806 355.5,440.5C 355.676,435.12 355.342,429.787 354.5,424.5C 357.385,424.806 360.052,424.473 362.5,423.5 Z"/></g>
</svg>
