<?xml version="1.0" encoding="UTF-8"?>
<!DOCTYPE svg PUBLIC "-//W3C//DTD SVG 1.1//EN" "http://www.w3.org/Graphics/SVG/1.1/DTD/svg11.dtd">
<svg xmlns="http://www.w3.org/2000/svg" version="1.1" width="512px" height="512px" style="shape-rendering:geometricPrecision; text-rendering:geometricPrecision; image-rendering:optimizeQuality; fill-rule:evenodd; clip-rule:evenodd" xmlns:xlink="http://www.w3.org/1999/xlink">
<g><path style="opacity:1" fill="#ecf3f9" d="M 351.5,39.5 C 351.5,40.5 351.5,41.5 351.5,42.5C 348.825,36.9955 344.491,33.4955 338.5,32C 313.502,31.5 288.502,31.3334 263.5,31.5C 257.833,31.5 252.167,31.5 246.5,31.5C 221.164,31.3334 195.831,31.5 170.5,32C 165.645,34.3566 161.979,37.8566 159.5,42.5C 159.5,41.5 159.5,40.5 159.5,39.5C 159.334,32.1591 159.5,24.8258 160,17.5C 161.833,13 165,9.83333 169.5,8C 226.833,7.33333 284.167,7.33333 341.5,8C 346,9.83333 349.167,13 351,17.5C 351.5,24.8258 351.666,32.1591 351.5,39.5 Z"/></g>
<g><path style="opacity:1" fill="#d5dfea" d="M 246.5,31.5 C 214.397,40.1192 198.897,61.1192 200,94.5C 205.599,124.213 223.433,140.546 253.5,143.5C 286.383,141.828 305.549,124.828 311,92.5C 312.263,70.1944 303.763,52.6944 285.5,40C 278.398,36.2494 271.065,33.4161 263.5,31.5C 288.502,31.3334 313.502,31.5 338.5,32C 344.491,33.4955 348.825,36.9955 351.5,42.5C 351.5,46.8333 351.5,51.1667 351.5,55.5C 351.5,60.8333 351.5,66.1667 351.5,71.5C 351.5,92.8333 351.5,114.167 351.5,135.5C 351.5,146.167 351.5,156.833 351.5,167.5C 351.5,172.833 351.5,178.167 351.5,183.5C 351.5,188.833 351.5,194.167 351.5,199.5C 351.5,220.833 351.5,242.167 351.5,263.5C 351.5,274.167 351.5,284.833 351.5,295.5C 351.5,300.833 351.5,306.167 351.5,311.5C 351.5,316.833 351.5,322.167 351.5,327.5C 351.5,347.167 351.5,366.833 351.5,386.5C 349.882,392.296 346.215,396.463 340.5,399C 314.997,399.83 289.663,399.663 264.5,398.5C 297.785,390.314 313.285,368.981 311,334.5C 302.414,301.275 280.914,285.775 246.5,288C 221.45,293.383 205.95,308.55 200,333.5C 197.236,362.821 209.069,383.654 235.5,396C 239.014,397.562 242.681,398.395 246.5,398.5C 221.337,399.663 196.003,399.83 170.5,399C 165.645,396.643 161.979,393.143 159.5,388.5C 159.5,368.167 159.5,347.833 159.5,327.5C 159.5,322.167 159.5,316.833 159.5,311.5C 159.5,306.167 159.5,300.833 159.5,295.5C 159.5,284.833 159.5,274.167 159.5,263.5C 159.5,242.167 159.5,220.833 159.5,199.5C 159.5,194.167 159.5,188.833 159.5,183.5C 159.5,178.167 159.5,172.833 159.5,167.5C 159.5,156.833 159.5,146.167 159.5,135.5C 159.5,114.167 159.5,92.8333 159.5,71.5C 159.5,66.1667 159.5,60.8333 159.5,55.5C 159.5,51.1667 159.5,46.8333 159.5,42.5C 161.979,37.8566 165.645,34.3566 170.5,32C 195.831,31.5 221.164,31.3334 246.5,31.5 Z"/></g>
<g><path style="opacity:1" fill="#8595b2" d="M 246.5,31.5 C 252.167,31.5 257.833,31.5 263.5,31.5C 271.065,33.4161 278.398,36.2494 285.5,40C 303.763,52.6944 312.263,70.1944 311,92.5C 305.549,124.828 286.383,141.828 253.5,143.5C 223.433,140.546 205.599,124.213 200,94.5C 198.897,61.1192 214.397,40.1192 246.5,31.5 Z"/></g>
<g><path style="opacity:1" fill="#a7b7d3" d="M 143.5,39.5 C 143.5,42.1667 143.5,44.8333 143.5,47.5C 132.833,47.5 122.167,47.5 111.5,47.5C 111.5,44.8333 111.5,42.1667 111.5,39.5C 122.167,39.5 132.833,39.5 143.5,39.5 Z"/></g>
<g><path style="opacity:1" fill="#8293b1" d="M 143.5,39.5 C 148.833,39.5 154.167,39.5 159.5,39.5C 159.5,40.5 159.5,41.5 159.5,42.5C 159.5,46.8333 159.5,51.1667 159.5,55.5C 143.658,55.1704 127.991,55.5037 112.5,56.5C 111.523,53.7131 111.19,50.7131 111.5,47.5C 122.167,47.5 132.833,47.5 143.5,47.5C 143.5,44.8333 143.5,42.1667 143.5,39.5 Z"/></g>
<g><path style="opacity:1" fill="#232531" d="M 300.5,71.5 C 297.5,71.5 294.5,71.5 291.5,71.5C 284.649,56.0561 272.649,48.0561 255.5,47.5C 238.363,48.0516 226.363,56.0516 219.5,71.5C 216.5,71.5 213.5,71.5 210.5,71.5C 222.358,45.4049 242.358,35.5715 270.5,42C 284.99,47.3234 294.99,57.1567 300.5,71.5 Z"/></g>
<g><path style="opacity:1" fill="#8293b1" d="M 351.5,39.5 C 356.833,39.5 362.167,39.5 367.5,39.5C 367.5,42.1667 367.5,44.8333 367.5,47.5C 378.167,47.5 388.833,47.5 399.5,47.5C 399.81,50.7131 399.477,53.7131 398.5,56.5C 383.009,55.5037 367.342,55.1704 351.5,55.5C 351.5,51.1667 351.5,46.8333 351.5,42.5C 351.5,41.5 351.5,40.5 351.5,39.5 Z"/></g>
<g><path style="opacity:1" fill="#a7b7d3" d="M 367.5,39.5 C 378.167,39.5 388.833,39.5 399.5,39.5C 399.5,42.1667 399.5,44.8333 399.5,47.5C 388.833,47.5 378.167,47.5 367.5,47.5C 367.5,44.8333 367.5,42.1667 367.5,39.5 Z"/></g>
<g><path style="opacity:1" fill="#383c47" d="M 291.5,71.5 C 267.5,71.5 243.5,71.5 219.5,71.5C 226.363,56.0516 238.363,48.0516 255.5,47.5C 272.649,48.0561 284.649,56.0561 291.5,71.5 Z"/></g>
<g><path style="opacity:1" fill="#5c6979" d="M 159.5,55.5 C 159.5,60.8333 159.5,66.1667 159.5,71.5C 148.833,71.5 138.167,71.5 127.5,71.5C 122.167,66.8333 117.167,61.8333 112.5,56.5C 127.991,55.5037 143.658,55.1704 159.5,55.5 Z"/></g>
<g><path style="opacity:1" fill="#5c6979" d="M 351.5,55.5 C 367.342,55.1704 383.009,55.5037 398.5,56.5C 393.833,61.8333 388.833,66.8333 383.5,71.5C 372.833,71.5 362.167,71.5 351.5,71.5C 351.5,66.1667 351.5,60.8333 351.5,55.5 Z"/></g>
<g><path style="opacity:1" fill="#e63b47" d="M 127.5,71.5 C 138.167,71.5 148.833,71.5 159.5,71.5C 159.5,92.8333 159.5,114.167 159.5,135.5C 154.588,135.75 150.255,134.416 146.5,131.5C 148.658,128.839 150.158,125.839 151,122.5C 151.667,111.833 151.667,101.167 151,90.5C 146.037,81.1072 138.203,77.4405 127.5,79.5C 127.5,76.8333 127.5,74.1667 127.5,71.5 Z"/></g>
<g><path style="opacity:1" fill="#b32e37" d="M 210.5,71.5 C 213.5,71.5 216.5,71.5 219.5,71.5C 243.5,71.5 267.5,71.5 291.5,71.5C 294.5,71.5 297.5,71.5 300.5,71.5C 302.357,76.6352 303.357,81.9686 303.5,87.5C 281.767,87.033 260.1,87.533 238.5,89C 223.231,97.6406 219.565,109.807 227.5,125.5C 214.43,116.199 207.763,103.366 207.5,87C 207.699,81.6339 208.699,76.4673 210.5,71.5 Z"/></g>
<g><path style="opacity:1" fill="#e63b47" d="M 351.5,71.5 C 362.167,71.5 372.833,71.5 383.5,71.5C 383.5,74.1667 383.5,76.8333 383.5,79.5C 372.717,77.1438 364.884,80.8105 360,90.5C 359.333,101.833 359.333,113.167 360,124.5C 361.511,126.862 363.011,129.195 364.5,131.5C 360.745,134.416 356.412,135.75 351.5,135.5C 351.5,114.167 351.5,92.8333 351.5,71.5 Z"/></g>
<g><path style="opacity:0.988" fill="#fe7c84" d="M 127.5,79.5 C 138.203,77.4405 146.037,81.1072 151,90.5C 151.667,101.167 151.667,111.833 151,122.5C 150.158,125.839 148.658,128.839 146.5,131.5C 138.8,127.819 133.633,121.819 131,113.5C 127.873,102.396 126.706,91.0623 127.5,79.5 Z"/></g>
<g><path style="opacity:0.991" fill="#fe7c84" d="M 383.5,79.5 C 385.628,95.6996 382.461,110.7 374,124.5C 371.499,127.848 368.332,130.182 364.5,131.5C 363.011,129.195 361.511,126.862 360,124.5C 359.333,113.167 359.333,101.833 360,90.5C 364.884,80.8105 372.717,77.1438 383.5,79.5 Z"/></g>
<g><path style="opacity:1" fill="#e53b47" d="M 303.5,87.5 C 300.432,116.734 284.266,132.734 255,135.5C 244.658,135.001 235.492,131.668 227.5,125.5C 219.565,109.807 223.231,97.6406 238.5,89C 260.1,87.533 281.767,87.033 303.5,87.5 Z"/></g>
<g><path style="opacity:1" fill="#8595b2" d="M 246.5,159.5 C 280.89,157.755 302.39,173.422 311,206.5C 313.142,238.747 298.975,259.913 268.5,270C 239.043,274.689 217.543,263.855 204,237.5C 194.077,208.94 201.244,185.773 225.5,168C 232.187,164.057 239.187,161.224 246.5,159.5 Z"/></g>
<g><path style="opacity:1" fill="#a7b7d3" d="M 143.5,167.5 C 143.5,170.167 143.5,172.833 143.5,175.5C 132.833,175.5 122.167,175.5 111.5,175.5C 111.5,172.833 111.5,170.167 111.5,167.5C 122.167,167.5 132.833,167.5 143.5,167.5 Z"/></g>
<g><path style="opacity:1" fill="#8293b1" d="M 143.5,167.5 C 148.833,167.5 154.167,167.5 159.5,167.5C 159.5,172.833 159.5,178.167 159.5,183.5C 143.658,183.17 127.991,183.504 112.5,184.5C 111.523,181.713 111.19,178.713 111.5,175.5C 122.167,175.5 132.833,175.5 143.5,175.5C 143.5,172.833 143.5,170.167 143.5,167.5 Z"/></g>
<g><path style="opacity:1" fill="#232531" d="M 300.5,199.5 C 297.5,199.5 294.5,199.5 291.5,199.5C 284.649,184.056 272.649,176.056 255.5,175.5C 238.363,176.052 226.363,184.052 219.5,199.5C 216.5,199.5 213.5,199.5 210.5,199.5C 222.358,173.405 242.358,163.572 270.5,170C 284.99,175.323 294.99,185.157 300.5,199.5 Z"/></g>
<g><path style="opacity:1" fill="#8293b1" d="M 351.5,167.5 C 356.833,167.5 362.167,167.5 367.5,167.5C 367.5,170.167 367.5,172.833 367.5,175.5C 378.167,175.5 388.833,175.5 399.5,175.5C 399.81,178.713 399.477,181.713 398.5,184.5C 383.009,183.504 367.342,183.17 351.5,183.5C 351.5,178.167 351.5,172.833 351.5,167.5 Z"/></g>
<g><path style="opacity:1" fill="#a7b7d3" d="M 367.5,167.5 C 378.167,167.5 388.833,167.5 399.5,167.5C 399.5,170.167 399.5,172.833 399.5,175.5C 388.833,175.5 378.167,175.5 367.5,175.5C 367.5,172.833 367.5,170.167 367.5,167.5 Z"/></g>
<g><path style="opacity:0.876" fill="#facb00" d="M 62.5,170.5 C 63.9217,170.709 65.255,171.209 66.5,172C 77.3333,182.833 88.1667,193.667 99,204.5C 100.833,210.667 98.6667,212.833 92.5,211C 80.6199,199.621 69.2866,187.788 58.5,175.5C 59.1598,173.185 60.4931,171.519 62.5,170.5 Z"/></g>
<g><path style="opacity:0.876" fill="#facb00" d="M 446.5,170.5 C 451.449,171.406 452.949,174.073 451,178.5C 440.167,189.333 429.333,200.167 418.5,211C 412.333,212.833 410.167,210.667 412,204.5C 423.395,192.937 434.895,181.604 446.5,170.5 Z"/></g>
<g><path style="opacity:1" fill="#383c47" d="M 291.5,199.5 C 267.5,199.5 243.5,199.5 219.5,199.5C 226.363,184.052 238.363,176.052 255.5,175.5C 272.649,176.056 284.649,184.056 291.5,199.5 Z"/></g>
<g><path style="opacity:1" fill="#5c6979" d="M 159.5,183.5 C 159.5,188.833 159.5,194.167 159.5,199.5C 148.833,199.5 138.167,199.5 127.5,199.5C 122.167,194.833 117.167,189.833 112.5,184.5C 127.991,183.504 143.658,183.17 159.5,183.5 Z"/></g>
<g><path style="opacity:1" fill="#5c6979" d="M 351.5,183.5 C 367.342,183.17 383.009,183.504 398.5,184.5C 393.833,189.833 388.833,194.833 383.5,199.5C 372.833,199.5 362.167,199.5 351.5,199.5C 351.5,194.167 351.5,188.833 351.5,183.5 Z"/></g>
<g><path style="opacity:1" fill="#fbcb02" d="M 127.5,199.5 C 138.167,199.5 148.833,199.5 159.5,199.5C 159.5,220.833 159.5,242.167 159.5,263.5C 154.588,263.75 150.255,262.416 146.5,259.5C 148.241,257.023 149.741,254.356 151,251.5C 151.667,240.833 151.667,230.167 151,219.5C 148.948,212.781 144.448,208.948 137.5,208C 134.183,207.502 130.85,207.335 127.5,207.5C 127.5,204.833 127.5,202.167 127.5,199.5 Z"/></g>
<g><path style="opacity:1" fill="#f9ab1b" d="M 210.5,199.5 C 213.5,199.5 216.5,199.5 219.5,199.5C 243.5,199.5 267.5,199.5 291.5,199.5C 294.5,199.5 297.5,199.5 300.5,199.5C 302.357,204.635 303.357,209.969 303.5,215.5C 282.831,215.333 262.164,215.5 241.5,216C 223.885,223.68 219.218,236.18 227.5,253.5C 214.576,244.327 207.909,231.66 207.5,215.5C 207.644,209.962 208.644,204.628 210.5,199.5 Z"/></g>
<g><path style="opacity:1" fill="#fbcb02" d="M 351.5,199.5 C 362.167,199.5 372.833,199.5 383.5,199.5C 383.5,202.167 383.5,204.833 383.5,207.5C 372.49,205.587 364.656,209.587 360,219.5C 359.333,230.167 359.333,240.833 360,251.5C 361.259,254.356 362.759,257.023 364.5,259.5C 360.745,262.416 356.412,263.75 351.5,263.5C 351.5,242.167 351.5,220.833 351.5,199.5 Z"/></g>
<g><path style="opacity:0.984" fill="#ffe47f" d="M 127.5,207.5 C 130.85,207.335 134.183,207.502 137.5,208C 144.448,208.948 148.948,212.781 151,219.5C 151.667,230.167 151.667,240.833 151,251.5C 149.741,254.356 148.241,257.023 146.5,259.5C 138.8,255.819 133.633,249.819 131,241.5C 127.873,230.396 126.706,219.062 127.5,207.5 Z"/></g>
<g><path style="opacity:0.985" fill="#ffe47f" d="M 383.5,207.5 C 385.628,223.7 382.461,238.7 374,252.5C 371.499,255.848 368.332,258.182 364.5,259.5C 362.759,257.023 361.259,254.356 360,251.5C 359.333,240.833 359.333,230.167 360,219.5C 364.656,209.587 372.49,205.587 383.5,207.5 Z"/></g>
<g><path style="opacity:1" fill="#faca02" d="M 303.5,215.5 C 300.37,244.963 284.037,260.963 254.5,263.5C 244.247,263.193 235.247,259.859 227.5,253.5C 219.218,236.18 223.885,223.68 241.5,216C 262.164,215.5 282.831,215.333 303.5,215.5 Z"/></g>
<g><path style="opacity:0.986" fill="#faca00" d="M 44.5,227.5 C 62.5031,227.333 80.5031,227.5 98.5,228C 99.8333,230.333 99.8333,232.667 98.5,235C 80.5,235.667 62.5,235.667 44.5,235C 43.2215,232.502 43.2215,230.002 44.5,227.5 Z"/></g>
<g><path style="opacity:0.986" fill="#faca00" d="M 412.5,227.5 C 430.503,227.333 448.503,227.5 466.5,228C 467.833,230.333 467.833,232.667 466.5,235C 448.5,235.667 430.5,235.667 412.5,235C 411.221,232.502 411.221,230.002 412.5,227.5 Z"/></g>
<g><path style="opacity:0.876" fill="#facb00" d="M 414.5,250.5 C 415.922,250.709 417.255,251.209 418.5,252C 429.333,262.833 440.167,273.667 451,284.5C 452.833,290.667 450.667,292.833 444.5,291C 432.62,279.621 421.287,267.788 410.5,255.5C 411.16,253.185 412.493,251.519 414.5,250.5 Z"/></g>
<g><path style="opacity:0.876" fill="#facb00" d="M 94.5,250.5 C 99.4491,251.406 100.949,254.073 99,258.5C 88.1667,269.333 77.3333,280.167 66.5,291C 60.3333,292.833 58.1667,290.667 60,284.5C 71.3951,272.937 82.8951,261.604 94.5,250.5 Z"/></g>
<g><path style="opacity:1" fill="#8495b2" d="M 264.5,398.5 C 258.479,399.726 252.479,399.726 246.5,398.5C 242.681,398.395 239.014,397.562 235.5,396C 209.069,383.654 197.236,362.821 200,333.5C 205.95,308.55 221.45,293.383 246.5,288C 280.914,285.775 302.414,301.275 311,334.5C 313.285,368.981 297.785,390.314 264.5,398.5 Z"/></g>
<g><path style="opacity:1" fill="#a7b7d3" d="M 143.5,295.5 C 143.5,298.167 143.5,300.833 143.5,303.5C 132.833,303.5 122.167,303.5 111.5,303.5C 111.5,300.833 111.5,298.167 111.5,295.5C 122.167,295.5 132.833,295.5 143.5,295.5 Z"/></g>
<g><path style="opacity:1" fill="#8293b1" d="M 143.5,295.5 C 148.833,295.5 154.167,295.5 159.5,295.5C 159.5,300.833 159.5,306.167 159.5,311.5C 143.658,311.17 127.991,311.504 112.5,312.5C 111.523,309.713 111.19,306.713 111.5,303.5C 122.167,303.5 132.833,303.5 143.5,303.5C 143.5,300.833 143.5,298.167 143.5,295.5 Z"/></g>
<g><path style="opacity:1" fill="#232531" d="M 300.5,327.5 C 297.5,327.5 294.5,327.5 291.5,327.5C 284.649,312.056 272.649,304.056 255.5,303.5C 238.363,304.052 226.363,312.052 219.5,327.5C 216.5,327.5 213.5,327.5 210.5,327.5C 222.358,301.405 242.358,291.572 270.5,298C 284.99,303.323 294.99,313.157 300.5,327.5 Z"/></g>
<g><path style="opacity:1" fill="#8293b1" d="M 351.5,295.5 C 356.833,295.5 362.167,295.5 367.5,295.5C 367.5,298.167 367.5,300.833 367.5,303.5C 378.167,303.5 388.833,303.5 399.5,303.5C 399.81,306.713 399.477,309.713 398.5,312.5C 383.009,311.504 367.342,311.17 351.5,311.5C 351.5,306.167 351.5,300.833 351.5,295.5 Z"/></g>
<g><path style="opacity:1" fill="#a7b7d3" d="M 367.5,295.5 C 378.167,295.5 388.833,295.5 399.5,295.5C 399.5,298.167 399.5,300.833 399.5,303.5C 388.833,303.5 378.167,303.5 367.5,303.5C 367.5,300.833 367.5,298.167 367.5,295.5 Z"/></g>
<g><path style="opacity:1" fill="#383c47" d="M 291.5,327.5 C 267.5,327.5 243.5,327.5 219.5,327.5C 226.363,312.052 238.363,304.052 255.5,303.5C 272.649,304.056 284.649,312.056 291.5,327.5 Z"/></g>
<g><path style="opacity:1" fill="#5c6979" d="M 159.5,311.5 C 159.5,316.833 159.5,322.167 159.5,327.5C 148.833,327.5 138.167,327.5 127.5,327.5C 122.167,322.833 117.167,317.833 112.5,312.5C 127.991,311.504 143.658,311.17 159.5,311.5 Z"/></g>
<g><path style="opacity:1" fill="#5c6979" d="M 351.5,311.5 C 367.342,311.17 383.009,311.504 398.5,312.5C 393.833,317.833 388.833,322.833 383.5,327.5C 372.833,327.5 362.167,327.5 351.5,327.5C 351.5,322.167 351.5,316.833 351.5,311.5 Z"/></g>
<g><path style="opacity:1" fill="#009144" d="M 127.5,327.5 C 138.167,327.5 148.833,327.5 159.5,327.5C 159.5,347.833 159.5,368.167 159.5,388.5C 159.5,389.5 159.5,390.5 159.5,391.5C 154.588,391.75 150.255,390.416 146.5,387.5C 148.658,384.839 150.158,381.839 151,378.5C 151.667,367.833 151.667,357.167 151,346.5C 146.037,337.107 138.203,333.44 127.5,335.5C 127.5,332.833 127.5,330.167 127.5,327.5 Z"/></g>
<g><path style="opacity:1" fill="#017336" d="M 210.5,327.5 C 213.5,327.5 216.5,327.5 219.5,327.5C 243.5,327.5 267.5,327.5 291.5,327.5C 294.5,327.5 297.5,327.5 300.5,327.5C 302.521,332.608 303.521,337.942 303.5,343.5C 282.831,343.333 262.164,343.5 241.5,344C 223.889,351.667 219.222,364.167 227.5,381.5C 214.43,372.199 207.763,359.366 207.5,343C 207.699,337.634 208.699,332.467 210.5,327.5 Z"/></g>
<g><path style="opacity:1" fill="#009144" d="M 351.5,327.5 C 362.167,327.5 372.833,327.5 383.5,327.5C 383.5,330.167 383.5,332.833 383.5,335.5C 372.717,333.144 364.884,336.81 360,346.5C 359.333,357.5 359.333,368.5 360,379.5C 360.738,382.648 362.238,385.315 364.5,387.5C 360.745,390.416 356.412,391.75 351.5,391.5C 351.5,389.833 351.5,388.167 351.5,386.5C 351.5,366.833 351.5,347.167 351.5,327.5 Z"/></g>
<g><path style="opacity:0.987" fill="#01c159" d="M 127.5,335.5 C 138.203,333.44 146.037,337.107 151,346.5C 151.667,357.167 151.667,367.833 151,378.5C 150.158,381.839 148.658,384.839 146.5,387.5C 138.8,383.819 133.633,377.819 131,369.5C 127.873,358.396 126.706,347.062 127.5,335.5 Z"/></g>
<g><path style="opacity:0.988" fill="#01c159" d="M 383.5,335.5 C 385.628,351.7 382.461,366.7 374,380.5C 371.499,383.848 368.332,386.182 364.5,387.5C 362.238,385.315 360.738,382.648 360,379.5C 359.333,368.5 359.333,357.5 360,346.5C 364.884,336.81 372.717,333.144 383.5,335.5 Z"/></g>
<g><path style="opacity:1" fill="#029144" d="M 303.5,343.5 C 300.442,372.725 284.275,388.725 255,391.5C 244.539,391.337 235.373,388.004 227.5,381.5C 219.222,364.167 223.889,351.667 241.5,344C 262.164,343.5 282.831,343.333 303.5,343.5 Z"/></g>
<g><path style="opacity:1" fill="#c1cfe7" d="M 351.5,386.5 C 351.5,388.167 351.5,389.833 351.5,391.5C 351.666,398.841 351.5,406.174 351,413.5C 349.167,418 346,421.167 341.5,423C 323.503,423.5 305.503,423.667 287.5,423.5C 266.167,423.5 244.833,423.5 223.5,423.5C 205.497,423.667 187.497,423.5 169.5,423C 165,421.167 161.833,418 160,413.5C 159.5,406.174 159.334,398.841 159.5,391.5C 159.5,390.5 159.5,389.5 159.5,388.5C 161.979,393.143 165.645,396.643 170.5,399C 196.003,399.83 221.337,399.663 246.5,398.5C 252.479,399.726 258.479,399.726 264.5,398.5C 289.663,399.663 314.997,399.83 340.5,399C 346.215,396.463 349.882,392.296 351.5,386.5 Z"/></g>
<g><path style="opacity:1" fill="#2b2b37" d="M 223.5,423.5 C 244.833,423.5 266.167,423.5 287.5,423.5C 287.5,426.167 287.5,428.833 287.5,431.5C 275.162,431.333 262.829,431.5 250.5,432C 240.81,436.884 237.144,444.717 239.5,455.5C 234.167,455.5 228.833,455.5 223.5,455.5C 223.5,444.833 223.5,434.167 223.5,423.5 Z"/></g>
<g><path style="opacity:1" fill="#383c47" d="M 287.5,431.5 C 287.5,439.5 287.5,447.5 287.5,455.5C 282.167,455.5 276.833,455.5 271.5,455.5C 260.833,455.5 250.167,455.5 239.5,455.5C 237.144,444.717 240.81,436.884 250.5,432C 262.829,431.5 275.162,431.333 287.5,431.5 Z"/></g>
<g><path style="opacity:1" fill="#2a2b36" d="M 239.5,455.5 C 250.167,455.5 260.833,455.5 271.5,455.5C 271.5,471.5 271.5,487.5 271.5,503.5C 260.833,503.5 250.167,503.5 239.5,503.5C 239.5,487.5 239.5,471.5 239.5,455.5 Z"/></g>
</svg>
