<?xml version="1.0" encoding="UTF-8"?>
<!DOCTYPE svg PUBLIC "-//W3C//DTD SVG 1.1//EN" "http://www.w3.org/Graphics/SVG/1.1/DTD/svg11.dtd">
<svg xmlns="http://www.w3.org/2000/svg" version="1.1" width="512px" height="512px" style="shape-rendering:geometricPrecision; text-rendering:geometricPrecision; image-rendering:optimizeQuality; fill-rule:evenodd; clip-rule:evenodd" xmlns:xlink="http://www.w3.org/1999/xlink">
<g><path style="opacity:0.99" fill="#fad85d" d="M 107.5,18.5 C 101.896,29.2763 96.0625,39.943 90,50.5C 89.0053,51.0659 88.172,51.7326 87.5,52.5C 87.5,53.5 87.5,54.5 87.5,55.5C 71.4409,83.2753 55.6075,111.275 40,139.5C 38.5841,146.783 41.0841,152.116 47.5,155.5C 38.8333,155.5 30.1667,155.5 21.5,155.5C 19.4998,153.329 17.6665,150.996 16,148.5C 15.3333,145.167 15.3333,141.833 16,138.5C 38.3333,98.5 60.6667,58.5 83,18.5C 87.9575,11.6371 94.4575,9.80374 102.5,13C 105.056,14.0545 106.723,15.8878 107.5,18.5 Z"/></g>
<g><path style="opacity:1" fill="#f1f0f0" d="M 402.5,189.5 C 361.213,202.886 325.38,194.219 295,163.5C 270.672,132.908 265.339,99.2411 279,62.5C 287.092,45.2609 298.592,30.9276 313.5,19.5C 350.96,5.11422 385.294,10.6142 416.5,36C 449.086,69.6051 456.253,108.105 438,151.5C 430.013,167.847 418.179,180.513 402.5,189.5 Z"/></g>
<g><path style="opacity:0.979" fill="#e2e7f5" d="M 313.5,19.5 C 298.592,30.9276 287.092,45.2609 279,62.5C 265.339,99.2411 270.672,132.908 295,163.5C 325.38,194.219 361.213,202.886 402.5,189.5C 391.856,196.497 380.19,201.164 367.5,203.5C 359.39,203.389 351.057,203.389 342.5,203.5C 340.167,203.5 337.833,203.5 335.5,203.5C 291.338,193.838 264.838,166.838 256,122.5C 251.875,82.2699 266.042,50.4366 298.5,27C 303.243,23.9617 308.243,21.4617 313.5,19.5 Z"/></g>
<g><path style="opacity:1" fill="#fbe696" d="M 107.5,18.5 C 129.973,58.1041 152.473,97.7708 175,137.5C 177.704,147.435 174.204,153.768 164.5,156.5C 125.517,155.536 86.5172,155.203 47.5,155.5C 41.0841,152.116 38.5841,146.783 40,139.5C 55.6075,111.275 71.4409,83.2753 87.5,55.5C 87.5,70.1667 87.5,84.8333 87.5,99.5C 92.8333,99.5 98.1667,99.5 103.5,99.5C 103.5,83.8333 103.5,68.1667 103.5,52.5C 98.1667,52.5 92.8333,52.5 87.5,52.5C 88.172,51.7326 89.0053,51.0659 90,50.5C 96.0625,39.943 101.896,29.2763 107.5,18.5 Z"/></g>
<g><path style="opacity:1" fill="#b5312a" d="M 338.5,36.5 C 381.316,33.1918 409.15,51.8584 422,92.5C 427.087,128.49 413.921,155.323 382.5,173C 353.909,184.78 327.576,181.113 303.5,162C 276.983,134.748 272.483,104.248 290,70.5C 301.648,52.6801 317.815,41.3468 338.5,36.5 Z"/></g>
<g><path style="opacity:1" fill="#464746" d="M 87.5,52.5 C 92.8333,52.5 98.1667,52.5 103.5,52.5C 103.5,68.1667 103.5,83.8333 103.5,99.5C 98.1667,99.5 92.8333,99.5 87.5,99.5C 87.5,84.8333 87.5,70.1667 87.5,55.5C 87.5,54.5 87.5,53.5 87.5,52.5 Z"/></g>
<g><path style="opacity:1" fill="#f1efef" d="M 339.5,52.5 C 351.536,51.4587 363.203,52.9587 374.5,57C 378.382,58.4336 381.715,60.6002 384.5,63.5C 358.847,89.6529 333.014,115.653 307,141.5C 295.935,126.012 292.935,109.012 298,90.5C 305.677,70.9845 319.511,58.3178 339.5,52.5 Z"/></g>
<g><path style="opacity:1" fill="#f1efef" d="M 395.5,74.5 C 406.689,88.2713 410.189,103.938 406,121.5C 399.099,144.401 383.932,158.235 360.5,163C 345.529,165.784 331.862,162.784 319.5,154C 318.549,153.282 318.383,152.449 319,151.5C 344.702,125.965 370.202,100.299 395.5,74.5 Z"/></g>
<g><path style="opacity:1" fill="#464746" d="M 87.5,116.5 C 92.8333,116.5 98.1667,116.5 103.5,116.5C 103.5,121.5 103.5,126.5 103.5,131.5C 98.1667,131.5 92.8333,131.5 87.5,131.5C 87.5,126.5 87.5,121.5 87.5,116.5 Z"/></g>
<g><path style="opacity:1" fill="#f5b840" d="M 21.5,155.5 C 30.1667,155.5 38.8333,155.5 47.5,155.5C 86.5172,155.203 125.517,155.536 164.5,156.5C 173.745,159.548 181.912,164.548 189,171.5C 205.472,192.94 222.306,214.107 239.5,235C 250.161,235.5 260.828,235.667 271.5,235.5C 271.5,235.833 271.5,236.167 271.5,236.5C 271.213,244.886 271.713,253.219 273,261.5C 277.559,274.061 286.392,281.561 299.5,284C 311.495,284.5 323.495,284.667 335.5,284.5C 335.5,292.5 335.5,300.5 335.5,308.5C 228.833,308.5 122.167,308.5 15.5,308.5C 15.5,257.5 15.5,206.5 15.5,155.5C 17.5,155.5 19.5,155.5 21.5,155.5 Z"/></g>
<g><path style="opacity:1" fill="#4d506c" d="M 186.5,220.5 C 142.833,220.5 99.1667,220.5 55.5,220.5C 55.5,209.5 55.5,198.5 55.5,187.5C 90.1683,187.333 124.835,187.5 159.5,188C 169.112,198.434 178.112,209.267 186.5,220.5 Z"/></g>
<g><path style="opacity:1" fill="#676767" d="M 335.5,203.5 C 337.833,203.5 340.167,203.5 342.5,203.5C 345.287,204.477 348.287,204.81 351.5,204.5C 351.333,266.501 351.5,328.501 352,390.5C 353.167,393 355,394.833 357.5,396C 360.817,396.498 364.15,396.665 367.5,396.5C 367.5,401.5 367.5,406.5 367.5,411.5C 356.833,412.833 346.167,412.833 335.5,411.5C 335.5,395.833 335.5,380.167 335.5,364.5C 335.5,359.167 335.5,353.833 335.5,348.5C 335.5,342.833 335.5,337.167 335.5,331.5C 335.5,323.833 335.5,316.167 335.5,308.5C 335.5,300.5 335.5,292.5 335.5,284.5C 335.5,278.833 335.5,273.167 335.5,267.5C 335.5,264.833 335.5,262.167 335.5,259.5C 335.5,240.833 335.5,222.167 335.5,203.5 Z"/></g>
<g><path style="opacity:1" fill="#939393" d="M 367.5,203.5 C 367.5,267.833 367.5,332.167 367.5,396.5C 364.15,396.665 360.817,396.498 357.5,396C 355,394.833 353.167,393 352,390.5C 351.5,328.501 351.333,266.501 351.5,204.5C 348.287,204.81 345.287,204.477 342.5,203.5C 351.057,203.389 359.39,203.389 367.5,203.5 Z"/></g>
<g><path style="opacity:1" fill="#363a4e" d="M 55.5,220.5 C 99.1667,220.5 142.833,220.5 186.5,220.5C 193.673,227.508 200.339,235.008 206.5,243C 156.168,243.5 105.834,243.667 55.5,243.5C 55.5,235.833 55.5,228.167 55.5,220.5 Z"/></g>
<g><path style="opacity:1" fill="#e2e6f3" d="M 271.5,236.5 C 276.833,236.5 282.167,236.5 287.5,236.5C 288.579,252.083 296.579,262.249 311.5,267C 319.493,267.5 327.493,267.666 335.5,267.5C 335.5,273.167 335.5,278.833 335.5,284.5C 323.495,284.667 311.495,284.5 299.5,284C 286.392,281.561 277.559,274.061 273,261.5C 271.713,253.219 271.213,244.886 271.5,236.5 Z"/></g>
<g><path style="opacity:1" fill="#f1f0ee" d="M 271.5,236.5 C 271.5,236.167 271.5,235.833 271.5,235.5C 284.171,235.333 296.838,235.5 309.5,236C 322.477,239.147 331.144,246.98 335.5,259.5C 335.5,262.167 335.5,264.833 335.5,267.5C 327.493,267.666 319.493,267.5 311.5,267C 296.579,262.249 288.579,252.083 287.5,236.5C 282.167,236.5 276.833,236.5 271.5,236.5 Z"/></g>
<g><path style="opacity:1" fill="#464746" d="M 135.5,268.5 C 146.167,268.5 156.833,268.5 167.5,268.5C 167.5,273.5 167.5,278.5 167.5,283.5C 156.833,283.5 146.167,283.5 135.5,283.5C 135.5,278.5 135.5,273.5 135.5,268.5 Z"/></g>
<g><path style="opacity:1" fill="#f3a83c" d="M 15.5,308.5 C 122.167,308.5 228.833,308.5 335.5,308.5C 335.5,316.167 335.5,323.833 335.5,331.5C 307.5,331.5 279.5,331.5 251.5,331.5C 233.164,314.805 212.83,311.971 190.5,323C 186.442,325.358 182.775,328.192 179.5,331.5C 124.833,331.5 70.1667,331.5 15.5,331.5C 15.5,323.833 15.5,316.167 15.5,308.5 Z"/></g>
<g><path style="opacity:0.987" fill="#474747" d="M 251.5,331.5 C 255.114,337.07 258.447,342.737 261.5,348.5C 262.969,353.72 263.636,359.054 263.5,364.5C 263.258,383.491 254.925,397.658 238.5,407C 234.932,408.618 231.265,409.951 227.5,411C 263.498,411.5 299.498,411.667 335.5,411.5C 346.167,412.833 356.833,412.833 367.5,411.5C 410.167,411.5 452.833,411.5 495.5,411.5C 495.5,438.5 495.5,465.5 495.5,492.5C 335.5,492.5 175.5,492.5 15.5,492.5C 15.5,465.5 15.5,438.5 15.5,411.5C 78.1676,411.667 140.834,411.5 203.5,411C 180.574,403.989 168.574,388.489 167.5,364.5C 167.364,359.054 168.031,353.72 169.5,348.5C 172.049,342.408 175.382,336.741 179.5,331.5C 182.775,328.192 186.442,325.358 190.5,323C 212.83,311.971 233.164,314.805 251.5,331.5 Z"/></g>
<g><path style="opacity:1" fill="#cbcac9" d="M 15.5,331.5 C 70.1667,331.5 124.833,331.5 179.5,331.5C 175.382,336.741 172.049,342.408 169.5,348.5C 118.167,348.5 66.8333,348.5 15.5,348.5C 15.5,342.833 15.5,337.167 15.5,331.5 Z"/></g>
<g><path style="opacity:1" fill="#cbcac9" d="M 251.5,331.5 C 279.5,331.5 307.5,331.5 335.5,331.5C 335.5,337.167 335.5,342.833 335.5,348.5C 310.833,348.5 286.167,348.5 261.5,348.5C 258.447,342.737 255.114,337.07 251.5,331.5 Z"/></g>
<g><path style="opacity:1" fill="#b5b5b5" d="M 15.5,348.5 C 66.8333,348.5 118.167,348.5 169.5,348.5C 168.031,353.72 167.364,359.054 167.5,364.5C 116.833,364.5 66.1667,364.5 15.5,364.5C 15.5,359.167 15.5,353.833 15.5,348.5 Z"/></g>
<g><path style="opacity:1" fill="#676767" d="M 209.5,348.5 C 224.545,346.911 231.711,353.578 231,368.5C 226.973,378.08 219.807,381.58 209.5,379C 198.473,372.106 196.64,363.273 204,352.5C 206.015,351.303 207.849,349.97 209.5,348.5 Z"/></g>
<g><path style="opacity:1" fill="#b5b5b5" d="M 261.5,348.5 C 286.167,348.5 310.833,348.5 335.5,348.5C 335.5,353.833 335.5,359.167 335.5,364.5C 311.5,364.5 287.5,364.5 263.5,364.5C 263.636,359.054 262.969,353.72 261.5,348.5 Z"/></g>
<g><path style="opacity:1" fill="#ebb240" d="M 31.5,443.5 C 47.5,443.5 63.5,443.5 79.5,443.5C 79.5,449.167 79.5,454.833 79.5,460.5C 63.5,460.5 47.5,460.5 31.5,460.5C 31.5,454.833 31.5,449.167 31.5,443.5 Z"/></g>
<g><path style="opacity:1" fill="#ebb240" d="M 111.5,443.5 C 127.5,443.5 143.5,443.5 159.5,443.5C 159.5,449.167 159.5,454.833 159.5,460.5C 143.5,460.5 127.5,460.5 111.5,460.5C 111.5,454.833 111.5,449.167 111.5,443.5 Z"/></g>
<g><path style="opacity:1" fill="#ebb240" d="M 191.5,443.5 C 207.5,443.5 223.5,443.5 239.5,443.5C 239.5,449.167 239.5,454.833 239.5,460.5C 223.5,460.5 207.5,460.5 191.5,460.5C 191.5,454.833 191.5,449.167 191.5,443.5 Z"/></g>
<g><path style="opacity:1" fill="#ebb240" d="M 271.5,443.5 C 287.5,443.5 303.5,443.5 319.5,443.5C 319.5,449.167 319.5,454.833 319.5,460.5C 303.5,460.5 287.5,460.5 271.5,460.5C 271.5,454.833 271.5,449.167 271.5,443.5 Z"/></g>
<g><path style="opacity:1" fill="#ebb240" d="M 351.5,443.5 C 367.5,443.5 383.5,443.5 399.5,443.5C 399.5,449.167 399.5,454.833 399.5,460.5C 383.5,460.5 367.5,460.5 351.5,460.5C 351.5,454.833 351.5,449.167 351.5,443.5 Z"/></g>
<g><path style="opacity:1" fill="#ebb240" d="M 431.5,443.5 C 447.5,443.5 463.5,443.5 479.5,443.5C 479.5,449.167 479.5,454.833 479.5,460.5C 463.5,460.5 447.5,460.5 431.5,460.5C 431.5,454.833 431.5,449.167 431.5,443.5 Z"/></g>
</svg>
